<svg xmlns="http://www.w3.org/2000/svg" height="512pt" viewBox="-5 0 512 512" width="512pt"><path d="m256.183594 138.734375c-1.679688 2.46875-4.128906 2.765625-5.125 2.765625-.992188 0-3.484375-.269531-5.121094-2.765625-2.277344-3.460937-6.925781-4.421875-10.386719-2.148437-3.460937 2.273437-4.425781 6.921874-2.152343 10.386718 3.921874 5.964844 10.523437 9.527344 17.660156 9.527344 7.140625 0 13.742187-3.5625 17.660156-9.527344 2.273438-3.464844 1.3125-8.113281-2.148438-10.386718-1.269531-.832032-6.882812-2.992188-10.386718 2.148437zm0 0"></path><path d="m176.257812 131.640625c-2.929687 2.929687-2.929687 7.679687.003907 10.609375 2.925781 2.929688 7.675781 2.925781 10.605469-.003906.859374-.859375 1.863281-.988282 2.386718-.988282.523438 0 1.453125.210938 2.386719.988282 4.734375 3.964844 9.144531 1.464844 10.605469.003906 2.929687-2.929688 2.929687-7.679688 0-10.609375-3.46875-3.46875-8.085938-5.378906-12.992188-5.378906s-9.523437 1.910156-12.996094 5.378906zm0 0"></path><path d="m299.871094 131.640625c-2.929688 2.929687-2.929688 7.679687 0 10.609375 2.929687 2.929688 7.679687 2.925781 10.609375-.003906.859375-.859375 1.863281-.988282 2.386719-.988282.523437 0 1.453124.210938 2.386718.988282 4.734375 3.964844 9.144532 1.464844 10.605469.003906 2.929687-2.929688 2.929687-7.679688 0-10.609375-3.46875-3.46875-8.085937-5.378906-12.992187-5.378906s-9.523438 1.910156-12.996094 5.378906zm0 0"></path><path d="m365.609375 398.199219c0-23.847657-19.402344-43.25-43.25-43.25h-142.597656c-23.847657 0-43.25 19.402343-43.25 43.25v36.308593c0 23.847657 19.402343 43.25 43.25 43.25h142.597656c23.847656 0 43.25-19.402343 43.25-43.25zm-15 36.308593c0 15.574219-12.671875 28.25-28.25 28.25h-142.597656c-15.578125 0-28.25-12.671874-28.25-28.25v-36.3125c0-15.574218 12.671875-28.246093 28.25-28.246093h142.597656c15.578125 0 28.25 12.671875 28.25 28.246093zm0 0"></path><path d="m488.585938 351.851562v-47.015624c0-12.984376-7.800782-24.171876-18.949219-29.148438v-8.234375c0-15.546875-12.648438-28.195313-28.199219-28.195313h-14.863281v-62.933593c0-28.738281-10.339844-56.523438-29.113281-78.238281-2.710938-3.132813-7.449219-3.476563-10.578126-.769532-3.136718 2.710938-3.480468 7.445313-.769531 10.582032 16.417969 18.988281 25.460938 43.289062 25.460938 68.425781v58.042969c0 26.3125-20.945313 47.8125-47.042969 48.726562-1.804688-8.21875-7.695312-14.921875-15.429688-17.867188v-41.550781c0-18.417969-14.984374-33.402343-33.402343-33.402343s-33.402344 14.984374-33.402344 33.402343v41.550781c-7.746094 2.949219-13.644531 9.671876-15.441406 17.910157h-31.589844c-1.796875-8.238281-7.695313-14.960938-15.441406-17.910157v-41.550781c0-18.417969-14.984375-33.402343-33.402344-33.402343s-33.402344 14.984374-33.402344 33.402343v41.550781c-7.734375 2.945313-13.625 9.648438-15.429687 17.867188-26.09375-.914062-47.042969-22.414062-47.042969-48.726562v-58.042969c0-57.714844 46.953125-104.667969 104.667969-104.667969h111.691406c20.746094 0 40.792969 6.054688 57.980469 17.511719 3.445312 2.296875 8.101562 1.363281 10.398437-2.082031 2.296875-3.445313 1.367188-8.101563-2.082031-10.402344-16.734375-11.15625-35.847656-17.816406-55.796875-19.550782-7.160156-32.96875-36.617188-57.132812-70.902344-57.132812-34.691406 0-64.429687 24.742188-71.136718 58.3125-56.574219 9.484375-99.820313 58.789062-99.820313 118.011719v62.933593h-14.867187c-15.546876 0-28.195313 12.648438-28.195313 28.195313v8.234375c-11.152344 4.976562-18.949219 16.164062-18.949219 29.148438v47.015624c-8.265625 6.917969-13.535156 17.304688-13.535156 28.902344v77.558594c0 29.601562 24.085938 53.6875 53.6875 53.6875h394.746094c29.601562 0 53.6875-24.085938 53.6875-53.6875v-77.558594c0-11.597656-5.269532-21.984375-13.535156-28.902344zm-258.914063-295.195312c4.292969-4.519531 10.335937-7.277344 16.835937-7.277344 6.496094 0 12.542969 2.757813 16.832032 7.277344zm16.832031-41.65625c25.914063 0 48.347656 17.398438 55.324219 41.65625h-20.617187c-6.152344-13.355469-19.695313-22.277344-34.707032-22.277344-15.007812 0-28.554687 8.921875-34.703125 22.277344 0 0-19.292969.03125-20.640625.078125 6.949219-24.296875 29.402344-41.734375 55.34375-41.734375zm227.082032 329.195312c-2.933594-.734374-6-1.128906-9.15625-1.128906h-37.855469v-55.136718h30.105469c9.320312 0 16.90625 7.582031 16.90625 16.90625zm-32.148438-89.9375c7.277344 0 13.199219 5.917969 13.199219 13.195313v5.476563h-28.0625v-18.671876zm-125.738281-48.984374c10.148437 0 18.402343 8.253906 18.402343 18.402343v39.929688h-36.804687v-39.929688c0-10.148437 8.253906-18.402343 18.402344-18.402343zm-24.597657 73.332031h49.195313c5.414063 0 9.816406 4.40625 9.816406 9.820312 0 5.414063-4.402343 9.816407-9.816406 9.816407h-49.195313c-5.414062 0-9.820312-4.402344-9.820312-9.816407 0-5.414062 4.40625-9.820312 9.820312-9.820312zm40.996094 34.640625c-3.042968 5.976562-9.242187 10.089844-16.398437 10.089844s-13.355469-4.113282-16.394531-10.089844zm-145.675781-107.972656c10.144531 0 18.398437 8.253906 18.398437 18.402343v39.929688h-36.800781v-39.929688c0-10.148437 8.253907-18.402343 18.402344-18.402343zm-24.597656 73.332031h49.195312c5.414063 0 9.816407 4.40625 9.816407 9.820312 0 5.414063-4.402344 9.816407-9.816407 9.816407h-49.195312c-5.414063 0-9.820313-4.402344-9.820313-9.816407 0-5.414062 4.40625-9.820312 9.820313-9.820312zm40.992187 34.640625c-3.042968 5.976562-9.242187 10.089844-16.394531 10.089844-7.15625 0-13.355469-4.113282-16.398437-10.089844zm-142.136718-58.988282h14.863281v18.671876h-28.058594v-5.476563c0-7.277344 5.921875-13.195313 13.195313-13.195313zm-32.144532 50.578126c0-9.324219 7.582032-16.90625 16.90625-16.90625h30.101563v55.136718h-37.855469c-3.15625 0-6.21875.394532-9.152344 1.128906zm112.3125 192.164062c-27.738281 0-50.304687-22.566406-50.304687-50.300781v-10.070313c0-4.144531-3.355469-7.5-7.5-7.5-4.140625 0-7.5 3.355469-7.5 7.5v10.070313c0 20.214843 9.238281 38.3125 23.707031 50.300781h-45.5625c-21.332031 0-38.6875-17.355469-38.6875-38.6875v-77.558594c0-12.511718 10.179688-22.6875 22.6875-22.6875h37.855469v44.398438c0 4.140625 3.355469 7.5 7.5 7.5s7.5-3.359375 7.5-7.5v-127.070313c11.640625 13.816407 29.023437 22.632813 48.4375 22.734375 2.742187 6.429688 8.121093 11.46875 14.769531 13.761719 3.210938 15.089844 16.636719 26.445313 32.671875 26.445313 16.03125 0 29.457031-11.355469 32.667969-26.445313 6.644531-2.292969 12.023437-7.328125 14.765625-13.753906h34.40625c2.742187 6.425781 8.121093 11.460937 14.769531 13.753906 3.207031 15.089844 16.632812 26.445313 32.667969 26.445313 16.03125 0 29.457031-11.355469 32.667969-26.445313 6.648437-2.296875 12.03125-7.332031 14.769531-13.761719 19.414062-.101562 36.796875-8.921875 48.4375-22.734375v171.300781c0 27.738282-22.5625 50.304688-50.300781 50.304688zm346.273438-38.6875c0 21.332031-17.355469 38.6875-38.6875 38.6875h-45.566406c14.472656-11.988281 23.707031-30.085938 23.707031-50.300781v-88.632813h37.855469c12.511718 0 22.6875 10.175782 22.6875 22.6875v77.558594zm0 0"></path><path d="m323.1875 390.632812h-144.253906c-4.144532 0-7.5 3.359376-7.5 7.5 0 4.140626 3.355468 7.5 7.5 7.5h144.253906c4.140625 0 7.5-3.359374 7.5-7.5 0-4.140624-3.359375-7.5-7.5-7.5zm0 0"></path></svg>