<svg id="Capa_1" enable-background="new 0 0 512.29 512.29" height="512" viewBox="0 0 512.29 512.29" width="512" xmlns="http://www.w3.org/2000/svg"><path d="m512.145 258.5v-27.43c0-35.991-29.011-65.317-64.872-65.854v-.021c-4.149 0 9.806-.004-58.73-.004v-78.742c-.001-47.668-38.781-86.449-86.449-86.449h-91.898c-47.668 0-86.449 38.781-86.449 86.449v78.741c-.575 0-58.73-.093-58.73.025-35.86.538-64.872 29.863-64.872 65.854v186.931h15v-186.93c0-27.72 22.283-50.319 49.872-50.854v317.049c-27.589-.536-49.872-23.134-49.872-50.854v-13.411h-15v13.41c0 36.326 29.549 65.88 65.87 65.88h380.26c36.321 0 65.87-29.554 65.87-65.88v-172.91h-15v172.91c0 27.72-22.283 50.319-49.872 50.854v-317.049c27.589.536 49.872 23.134 49.872 50.854v27.43h15zm-79.872 238.592h-26.149v-316.898h26.149zm-41.149.198h-269.957v-317.1h23.155v22.779c0 36.324 29.551 65.875 65.875 65.875h91.896c36.323 0 65.875-29.551 65.875-65.875v-22.779h23.155v317.1zm-311.107-317.096h26.149v316.898h-26.149zm272.951 0v22.774c0 28.053-22.822 50.875-50.875 50.875h-91.896c-28.053 0-50.875-22.822-50.875-50.875v-22.774zm-214.22-93.745c0-39.397 32.052-71.449 71.449-71.449h91.898c39.396 0 71.448 32.052 71.448 71.449v77.923h-26.149v-77.21c0-24.979-20.321-45.3-45.299-45.3h-91.898c-24.978 0-45.299 20.322-45.299 45.3v77.211h-26.149v-77.924zm41.149.713c0-16.708 13.592-30.3 30.299-30.3h91.898c16.707 0 30.299 13.593 30.299 30.3v78.028h-152.496z"/><path d="m147.567 472.695h217.156v-156.617h-217.156zm15-141.617h187.156v126.617h-187.156z"/><path d="m306.359 401.887h-15v-15h15zm-30 0h-15v-15h15zm-30 0h-40.428v-15h40.428z"/></svg>